<svg width="64" height="64" viewBox="0 0 768 768" fill="none" xmlns="http://www.w3.org/2000/svg">
	<defs>
		<linearGradient id="mainGradient" x1="0" y1="0" x2="1" y2="1">
			<stop offset="0%" stop-color="#00C6FB" />
			<stop offset="100%" stop-color="#7F30FF" />
		</linearGradient>
		<linearGradient id="purpleGradient" x1="0" y1="0" x2="1" y2="1">
			<stop offset="0%" stop-color="#00C6FB" />
			<stop offset="100%" stop-color="#7F30FF" />
		</linearGradient>
		<radialGradient id="dotGradient" cx="0.5" cy="0.5" r="0.5">
			<stop offset="0%" stop-color="#fff" />
			<stop offset="100%" stop-color="#7F30FF" />
		</radialGradient>
	</defs>
	<path d="M120 180c0-66.274 53.726-120 120-120" stroke="url(#mainGradient)" stroke-width="20" fill="none" />
	<path d="M160 180c0-44.183 35.817-80 80-80" stroke="url(#mainGradient)" stroke-width="16" fill="none" />
	<path d="M200 180c0-22.091 17.909-40 40-40" stroke="url(#mainGradient)" stroke-width="12" fill="none" />
	<circle cx="240" cy="180" r="32" fill="url(#mainGradient)" />
	<rect x="160" y="240" width="64" height="320" rx="16" fill="url(#mainGradient)" />
	<rect x="224" y="544" width="320" height="64" rx="16" fill="url(#purpleGradient)" />
	<rect x="160" y="608" width="384" height="16" fill="url(#mainGradient)" />
	<text x="280" y="480" font-family="Montserrat, Inter, Arial, sans-serif" font-weight="bold" font-size="200" fill="url(#purpleGradient)">think</text>
	<circle cx="672" cy="320" r="24" fill="url(#dotGradient)" />
	<path d="M272 240 Q600 240 648 320 Q696 400 320 560" stroke="url(#purpleGradient)" stroke-width="8" fill="none" />
	<circle cx="480" cy="480" r="20" fill="url(#dotGradient)" />
</svg>